<svg width="75" height="75" viewBox="0 0 75 75" fill="none" xmlns="http://www.w3.org/2000/svg">
<g filter="url(#filter0_d)">
<path fill-rule="evenodd" clip-rule="evenodd" d="M37.5 48C47.165 48 55 40.165 55 30.5C55 20.835 47.165 13 37.5 13C27.835 13 20 20.835 20 30.5C20 40.165 27.835 48 37.5 48Z" fill="white"/>
</g>
<path d="M37.5 44.1109C45.0172 44.1109 51.1111 38.017 51.1111 30.4998C51.1111 22.9826 45.0172 16.8887 37.5 16.8887C29.9828 16.8887 23.8889 22.9826 23.8889 30.4998C23.8889 38.017 29.9828 44.1109 37.5 44.1109Z" fill="#00C48C"/>
<path d="M41.6687 26.6326C42.0798 26.2214 42.7464 26.2214 43.1576 26.6326C43.5687 27.0437 43.5687 27.7103 43.1576 28.1215L36.8407 34.4383C36.4296 34.8495 35.763 34.8495 35.3518 34.4383L31.8425 30.929C31.4313 30.5178 31.4313 29.8512 31.8425 29.4401C32.2536 29.0289 32.9202 29.0289 33.3314 29.4401L36.0963 32.205L41.6687 26.6326Z" fill="white"/>
<defs>
<filter id="filter0_d" x="0" y="0" width="75" height="75" filterUnits="userSpaceOnUse" color-interpolation-filters="sRGB">
<feFlood flood-opacity="0" result="BackgroundImageFix"/>
<feColorMatrix in="SourceAlpha" type="matrix" values="0 0 0 0 0 0 0 0 0 0 0 0 0 0 0 0 0 0 127 0"/>
<feOffset dy="7"/>
<feGaussianBlur stdDeviation="10"/>
<feColorMatrix type="matrix" values="0 0 0 0 0 0 0 0 0 0 0 0 0 0 0 0 0 0 0.07 0"/>
<feBlend mode="normal" in2="BackgroundImageFix" result="effect1_dropShadow"/>
<feBlend mode="normal" in="SourceGraphic" in2="effect1_dropShadow" result="shape"/>
</filter>
</defs>
</svg>
