<svg fill="none" height="132" viewBox="0 0 171 132" width="171" xmlns="http://www.w3.org/2000/svg" xmlns:xlink="http://www.w3.org/1999/xlink"><filter id="a" color-interpolation-filters="sRGB" filterUnits="userSpaceOnUse" height="76.2761" width="116.145" x="0" y="47.8426"><feFlood flood-opacity="0" result="BackgroundImageFix"/><feColorMatrix in="SourceAlpha" type="matrix" values="0 0 0 0 0 0 0 0 0 0 0 0 0 0 0 0 0 0 127 0"/><feOffset dx="5" dy="5"/><feGaussianBlur stdDeviation="10"/><feColorMatrix type="matrix" values="0 0 0 0 0 0 0 0 0 0 0 0 0 0 0 0 0 0 0.2 0"/><feBlend in2="BackgroundImageFix" mode="normal" result="effect1_dropShadow"/><feBlend in="SourceGraphic" in2="effect1_dropShadow" mode="normal" result="shape"/></filter><linearGradient id="b" gradientUnits="userSpaceOnUse" x1="105.193" x2="102.971" y1="8.09362" y2="137.225"><stop offset="0" stop-color="#fff" stop-opacity="0"/><stop offset="1" stop-color="#64b5f6" stop-opacity=".6"/></linearGradient><linearGradient id="c" gradientUnits="userSpaceOnUse" x1="75.3994" x2="156.656" y1="57.2807" y2="57.2807"><stop offset="0" stop-color="#ef9a9a"/><stop offset="1" stop-color="#d81b60"/></linearGradient><linearGradient id="d"><stop offset="0" stop-color="#7e57c2"/><stop offset="1" stop-color="#4527a0"/></linearGradient><linearGradient id="e" gradientUnits="userSpaceOnUse" x1="76.6836" x2="74.2744" xlink:href="#d" y1="82.8826" y2="110.514"/><linearGradient id="f" gradientUnits="userSpaceOnUse" x1="6813.02" x2="6789.49" xlink:href="#d" y1="2527.43" y2="3103.43"/><linearGradient id="g" gradientUnits="userSpaceOnUse" x1="20341.2" x2="24468.7" xlink:href="#d" y1="14858" y2="22492.9"/><linearGradient id="h" gradientUnits="userSpaceOnUse" x1="13960.4" x2="17624.5" xlink:href="#d" y1="9770.53" y2="15926.1"/><linearGradient id="i" gradientUnits="userSpaceOnUse" x1="118.759" x2="113.038" y1="72.7489" y2="119.812"><stop offset=".14" stop-color="#7e57c2" stop-opacity="0"/><stop offset=".26" stop-color="#724dbb" stop-opacity=".21"/><stop offset=".48" stop-color="#5f3daf" stop-opacity=".55"/><stop offset=".66" stop-color="#5131a7" stop-opacity=".79"/><stop offset=".81" stop-color="#482aa2" stop-opacity=".94"/><stop offset=".91" stop-color="#4527a0"/></linearGradient><linearGradient id="j"><stop offset="0" stop-color="#d2d4d5"/><stop offset="1" stop-color="#aaacae"/></linearGradient><linearGradient id="k" gradientUnits="userSpaceOnUse" x1="27.4539" x2="91.1451" xlink:href="#j" y1="97.7497" y2="97.7497"/><linearGradient id="l" gradientUnits="userSpaceOnUse" x1="537.989" x2="4142.02" xlink:href="#j" y1="4198.71" y2="8332.05"/><linearGradient id="m"><stop offset="0" stop-color="#fff8e1"/><stop offset="1" stop-color="#ffcc80"/></linearGradient><linearGradient id="n" gradientUnits="userSpaceOnUse" x1="43.5767" x2="63.884" xlink:href="#m" y1="94.557" y2="103.338"/><linearGradient id="o" gradientUnits="userSpaceOnUse" x1="7875.06" x2="8393.29" xlink:href="#m" y1="2941.73" y2="3509.97"/><linearGradient id="p" gradientUnits="userSpaceOnUse" x1="8044.47" x2="8499.41" xlink:href="#m" y1="3227.22" y2="4088.69"/><path d="m171 66.5c-.007 12.0373-3.355 23.8405-9.68 34.116-6.324 10.276-15.379 18.628-26.173 24.14-.486.252-.975.495-1.468.727l-.102.051-.351.167c-.291.141-.576.272-.872.404-1.844.838-3.737 1.591-5.676 2.258-1.101.38-2.214.732-3.338 1.056l-1.345.368c-14.968 3.952-30.8596 2.581-44.914-3.874-.5758-.268-1.1516-.541-1.7172-.824l-1.0192-.505c-10.0872-5.24-18.6439-12.966-24.8467-22.434-.6522-.987-1.2739-1.997-1.865-3.0313-.5265-.8992-1.0361-1.8102-1.5287-2.733-4.7874-9.2462-7.277-19.4926-7.2614-29.8857 0-1.2259.034-2.445.1019-3.6574.9554-17.0322 8.5756-33.023 21.2401-44.5713 12.6645-11.54831 29.3738-17.743019 46.5742-17.26658 17.201.47644 33.535 7.58643 45.529 19.81778 11.994 12.2314 18.702 28.619 18.697 45.6775z" fill="url(#b)"/><path d="m91.9452 64.1712s-14.7776-6.9461-16.0617-16.5038c-1.2841-9.5578-.3822-18.6912 6.9811-21.2474 0 0 4.6575-14.7206 21.1674-8.805 16.51 5.9155 13.906 23.6771 22.931 25.8039 9.024 2.1268 25.876-6.8299 29.091 4.0969 3.216 10.9268-7.358 10.26-14.385 19.5348-7.027 9.2749 3.827 14.1447 1.84 20.53-1.988 6.3854-9.494 10.7753-9.494 10.7753z" fill="url(#c)"/><path d="m71.7101 85.1356 4.1734 11.2501h.4535l6.5276-29.3351c-4.1224 3.5817-11.1545 18.085-11.1545 18.085z" fill="url(#e)"/><path d="m64.3825 100.654-2.6447 1.319c-3.2816 1.95-8.1837 1.394-8.1837 1.394 2.6498 2.955 17.57 6.3 21.7638 6.214l.7745-10.4674h-9.2945z" fill="url(#f)"/><path d="m133.679 125.468-.102.051-.351.166c-.291.142-.576.273-.872.405-1.845.838-3.737 1.591-5.676 2.258-1.101.38-2.214.732-3.338 1.055l-1.345.369c-14.968 3.952-30.8596 2.581-44.914-3.874-.5758-.268-1.1516-.541-1.7172-.824l-1.0192-.505c.1427-4.334.3618-9.522.6829-14.993.2038-3.42.4535-6.951.749-10.4573.0765-.9144.158-1.8237.2395-2.733 1.2026-12.9222 3.1288-24.9048 6.2168-28.7137l.0459-.0505c.392-.5349.9451-.9329 1.5796-1.1367 4.4588-1.0507 7.6028-1.4043 8.0971-2.3136s0-2.6976 0-2.6976l.8867-.1213c1.2892-.1919 3.7912-.5961 6.1607-1.2023.0149.0047.0309.0047.0458 0 2.0944-.5405 4.0764-1.2376 5.0444-2.0762l1.988 5.2386s14.945-1.8742 20.78 3.7584c.036.0263.068.0568.097.091.061.0551.119.1142.173.1768.347.3639.656.7616.922 1.1871 1.901 3.031 3.246 15.1955 4.179 28.3904.214 3.031.408 6.1629.576 9.2299.387 7.082.677 13.942.871 19.322z" fill="url(#g)"/><path d="m133.577 125.534-.352.167c-.29.141-.575.272-.871.404-1.845.838-3.737 1.591-5.676 2.258-1.101.38-2.214.732-3.338 1.056-6.884-7.27-9.616-16.706-9.616-16.706l19.073-6.567z" fill="#000" opacity=".15"/><path d="m126.856 67.0506c6.905 6.7188 8.408 20.823 7.134 31.3204-1.274 10.497-3.639 20.328-8.551 20.025s-21.911-11.993-28.4797-18.368l3.8367-7.2997 13.881 5.7336v-15.2813z" fill="url(#h)"/><path d="m126.856 67.0506c6.905 6.7188 8.408 20.823 7.134 31.3204-1.274 10.497-3.639 20.328-8.551 20.025s-21.911-11.993-28.4797-18.368l3.8367-7.2997 13.881 5.7336v-15.2813z" fill="url(#i)"/><g filter="url(#a)"><path d="m91.1451 96.3857h-63.6912v2.733h63.6912z" fill="url(#k)"/><path d="m63.4347 62.8426h-48.4347l12.4539 33.5431h48.4296z" fill="url(#l)"/></g><path d="m41.9971 99.1187s8.3569 4.1473 13.6667 4.2483c5.3097.101 11.1392-4.2483 11.1392-4.2483z" fill="url(#n)"/><path d="m100.796 92.7283s-7.3476-3.6776-10.512-4.0818c-3.1644-.4041-12.989 7.7392-12.989 7.7392h13.8604l5.8193 3.6423z" fill="url(#o)"/><path d="m103.472 49.7891c.036 2.7662.24 5.5277.611 8.2696-3.287 1.8337-7.1338 2.8188-11.2511 3.2987l-.2395-3.2987-.1427-2.0207v-.0657c-.7937-.0177-1.5761-.1893-2.3032-.5052-4.9735-2.1267-6.0436-12.5231-6.0436-12.5231 1.9925-.0808 4.5862-3.6422 4.5862-3.6422 1.4522 2.2025 8.1888 6.456 12.0969 5.3144 3.909-1.1417 3.603-3.8747 3.603-3.8747.707.2955 1.318.7778 1.768 1.3943.449.6164.719 1.3434.78 2.1015.209 2.6673-3.465 5.5518-3.465 5.5518z" fill="url(#p)"/><g fill="#000"><path d="m100.134 52.7241c-.9223 1.5458-5.0957 4.006-7.5365 5.3447l-.1427-2.0207c.1528 0 .3006-.0505.4433-.0808 1.9927-.3497 3.9054-1.053 5.646-2.0763.0208-.0081.0399-.0201.0561-.0353.5231-.3066 1.0131-.6655 1.4628-1.071z" opacity=".15"/><path d="m108.95 96.1028 10.813 4.3852-5.096-3.6426v-13.6395s-1.595 11.8512-5.717 12.8969z" opacity=".15"/></g></svg>