<svg fill="none" height="208" viewBox="0 0 255 208" width="255" xmlns="http://www.w3.org/2000/svg" xmlns:xlink="http://www.w3.org/1999/xlink"><filter id="a" color-interpolation-filters="sRGB" filterUnits="userSpaceOnUse" height="70.8561" width="71.1381" x="41.1382" y="0"><feFlood flood-opacity="0" result="BackgroundImageFix"/><feColorMatrix in="SourceAlpha" type="matrix" values="0 0 0 0 0 0 0 0 0 0 0 0 0 0 0 0 0 0 127 0"/><feOffset dx="5" dy="5"/><feGaussianBlur stdDeviation="7.5"/><feColorMatrix type="matrix" values="0 0 0 0 0 0 0 0 0 0 0 0 0 0 0 0 0 0 0.15 0"/><feBlend in2="BackgroundImageFix" mode="normal" result="effect1_dropShadow"/><feBlend in="SourceGraphic" in2="effect1_dropShadow" mode="normal" result="shape"/></filter><filter id="b" color-interpolation-filters="sRGB" filterUnits="userSpaceOnUse" height="70.8561" width="71.1381" x="183" y="103"><feFlood flood-opacity="0" result="BackgroundImageFix"/><feColorMatrix in="SourceAlpha" type="matrix" values="0 0 0 0 0 0 0 0 0 0 0 0 0 0 0 0 0 0 127 0"/><feOffset dx="5" dy="5"/><feGaussianBlur stdDeviation="7.5"/><feColorMatrix type="matrix" values="0 0 0 0 0 0 0 0 0 0 0 0 0 0 0 0 0 0 0.15 0"/><feBlend in2="BackgroundImageFix" mode="normal" result="effect1_dropShadow"/><feBlend in="SourceGraphic" in2="effect1_dropShadow" mode="normal" result="shape"/></filter><filter id="c" color-interpolation-filters="sRGB" filterUnits="userSpaceOnUse" height="70.8561" width="71.1381" x="0" y="103"><feFlood flood-opacity="0" result="BackgroundImageFix"/><feColorMatrix in="SourceAlpha" type="matrix" values="0 0 0 0 0 0 0 0 0 0 0 0 0 0 0 0 0 0 127 0"/><feOffset dx="5" dy="5"/><feGaussianBlur stdDeviation="7.5"/><feColorMatrix type="matrix" values="0 0 0 0 0 0 0 0 0 0 0 0 0 0 0 0 0 0 0.15 0"/><feBlend in2="BackgroundImageFix" mode="normal" result="effect1_dropShadow"/><feBlend in="SourceGraphic" in2="effect1_dropShadow" mode="normal" result="shape"/></filter><filter id="d" color-interpolation-filters="sRGB" filterUnits="userSpaceOnUse" height="70.8561" width="71.1381" x="138" y="0"><feFlood flood-opacity="0" result="BackgroundImageFix"/><feColorMatrix in="SourceAlpha" type="matrix" values="0 0 0 0 0 0 0 0 0 0 0 0 0 0 0 0 0 0 127 0"/><feOffset dx="5" dy="5"/><feGaussianBlur stdDeviation="7.5"/><feColorMatrix type="matrix" values="0 0 0 0 0 0 0 0 0 0 0 0 0 0 0 0 0 0 0.15 0"/><feBlend in2="BackgroundImageFix" mode="normal" result="effect1_dropShadow"/><feBlend in="SourceGraphic" in2="effect1_dropShadow" mode="normal" result="shape"/></filter><linearGradient id="e" gradientUnits="userSpaceOnUse" x1="122.273" x2="120.029" y1="76.8651" y2="207.076"><stop offset="0" stop-color="#fff" stop-opacity="0"/><stop offset="1" stop-color="#64b5f6" stop-opacity=".6"/></linearGradient><linearGradient id="f"><stop offset="0" stop-color="#e57373"/><stop offset="1" stop-color="#ad1457"/></linearGradient><linearGradient id="g" gradientUnits="userSpaceOnUse" x1="134.41" x2="152.56" xlink:href="#f" y1="136.165" y2="168.279"/><linearGradient id="h" gradientUnits="userSpaceOnUse" x1="28141.2" x2="26229.2" xlink:href="#f" y1="39794.5" y2="49295.9"/><linearGradient id="i"><stop offset="0" stop-color="#fff8e1"/><stop offset="1" stop-color="#ffcc80"/></linearGradient><linearGradient id="j" gradientUnits="userSpaceOnUse" x1="202.122" x2="152.589" xlink:href="#i" y1="147.94" y2="176.833"/><linearGradient id="k" gradientUnits="userSpaceOnUse" x1="21652.4" x2="18981.7" xlink:href="#i" y1="22319.6" y2="20506.4"/><linearGradient id="l" gradientUnits="userSpaceOnUse" x1="138.704" x2="111.662" xlink:href="#i" y1="113.439" y2="124.652"/><linearGradient id="m" gradientUnits="userSpaceOnUse" x1="132.486" x2="101.053" y1="84.1463" y2="126.911"><stop offset="0" stop-color="#ffb74d"/><stop offset="1" stop-color="#f4511e"/></linearGradient><path d="m188.522 135.763c.008 9.183-1.916 18.266-5.648 26.668-3.733 8.402-9.192 15.936-16.027 22.121-1.901 1.722-3.9 3.334-5.987 4.83-2.678 1.919-5.497 3.635-8.433 5.135h-.031c-.626.327-1.262.637-1.903.938-.293.143-.58.275-.878.408-1.857.845-3.762 1.604-5.715 2.277-1.539.509-3.119 1.019-4.714 1.437-9.203 2.431-18.823 2.881-28.216 1.319-1.113-.183-2.211-.392-3.303-.631l-.924-.209c-2.787-.647-5.529-1.474-8.208-2.476-1.5561-.581-3.0814-1.218-4.576-1.911-.5797-.27-1.1594-.545-1.7288-.831-.3899-.193-.7747-.392-1.1594-.591-10.4383-5.444-19.2321-13.545-25.4809-23.475-6.2488-9.929-9.7282-21.33-10.0817-33.034-.3536-11.704 2.4313-23.291 8.0695-33.575 5.6382-10.2832 13.9271-18.8939 24.0179-24.9498 10.0909-6.056 21.6214-9.3396 33.4094-9.5147 11.789-.175 23.413 2.7648 33.682 8.5184 10.268 5.7536 18.813 14.1142 24.758 24.2261 5.945 10.111 9.078 21.611 9.077 33.32z" fill="url(#e)"/><path d="m139.432 140.542c4.237 4.331 16.58 21.185 16.58 21.185l-7.582 11.04-6.818-21.933z" fill="url(#g)"/><path d="m152.396 194.553c-.626.326-1.262.637-1.904.938-.292.142-.579.275-.877.407-1.857.846-3.762 1.605-5.715 2.278-1.539.509-3.119 1.019-4.714 1.436-9.203 2.432-18.823 2.881-28.216 1.32-1.113-.183-2.211-.392-3.303-.632-4.002 2.741-7.6956 5.059-10.1427 6.114l.2001-1.697.8311-7.097 1.9235-16.512 7.624-7.322-17.14 1.32s1.8006-24.812 8.8288-29.918c7.0282-5.105 14.4002-9.68 14.4002-9.68.879.576 1.848 1.005 2.868 1.269 2.437.669 4.971.926 7.495.759 3.006-.138 6.012-2.914 6.156-3.057 0 0 4.72.932 8.721 6.083 1.996 2.652 3.429 5.678 4.212 8.896.985 3.765 2.734 12.559 4.725 23.182 1.303 6.837 2.672 14.418 4.027 21.913z" fill="url(#h)"/><path d="m156.012 161.747 7.316 8.514 25.727-25.363.975-5.192 5.13-4.427-2.283 6.751v8.793s-19.843 31.946-25.312 33.591c-6.397 1.931-19.125-11.657-19.125-11.657z" fill="url(#j)"/><path d="m129.305 173.389 5.967 14.266 7.71-3.292-5.653-13.96z" fill="#7e57c2"/><path d="m137.616 182.606c-.959.784-2.391.601-4.166.692-2.384.063-4.672.953-6.464 2.517-2.385 1.992-9.054 7.205-15.723 11.963-1.211.861-2.422 1.712-3.591 2.548-4.002 2.741-7.6954 5.059-10.1425 6.113-.6433.318-1.338.519-2.052.597-3.4269.086-4.1605-7.047-4.3709-12.738-.0666-1.89-.082-3.617-.118-4.865-.1436-4.993 0-14.266 0-14.266l17.1394-1.325-1.816 11.79-.318 2.084v.015l5.13-1.885.159-.056 18.212-6.72 1.257-2.155.8 2.037h.077l7.798-1.018s.133 3.087-1.811 4.672z" fill="url(#k)"/><path d="m133.681 108.25c-.446-1.212-.831-2.038-.944-2.282v-.061s-.395.968-3.37.733c-2.976-.234-3.961-1.701-3.961-1.701s.934 3.179-2.611 4.539c-3.411 1.315-4.755.464-4.848.403.18.193 2.847 3.026 1.078 5.273-1.832 2.328-5.951 1.87-5.951 1.87v.03c.518 1.166 1.099 2.304 1.739 3.409.338.581.672 1.116 1.026 1.615v.036c.908 1.467 2.135 2.715 3.591 3.653-.64 3.728-2.477 7.151-5.238 9.756.929.482 1.886.905 2.868 1.269 1.913.718 4.483 1.432 6.777 1.233 2.657-.282 5.112-1.539 6.884-3.526l-1.175-4.478-1.056-4.035c9.552-2.42 6.925-12.946 5.191-17.736zm-5.725 17.883.169-.04.272-.077c-.395.17-.813.284-1.241.337.22-.056.446-.118.682-.189z" fill="url(#l)"/><path d="m139.432 105.774c-3.94 3.597-5.643 2.583-5.751 2.487v-.011c-.446-1.212-.831-2.038-.939-2.282l-.025-.061s-.4.968-3.376.733c-2.975-.234-3.955-1.701-3.955-1.701s.933 3.179-2.611 4.539c-3.417 1.315-4.761.464-4.848.403.179.188 2.847 3.021 1.077 5.268-1.831 2.328-5.951 1.875-5.951 1.875v.025c.518 1.168 1.099 2.307 1.739 3.414.342.577.684 1.116 1.026 1.615v.036s-1.405 2.746-3.914 2.69-2.565-2.548-2.565-2.548-1.775 3.179-7.259.117c-5.4842-3.062-1.826-7.499-1.826-7.499s-3.8891-2.955-3.8891-7.383c0-4.427 6.0531-7.795 6.0531-7.795s-2.164-5.1408 1.488-7.9736c3.653-2.8327 9.142-.912 9.142-.912s-.108-6.5775 5.484-6.4705 6.859 3.5053 6.859 3.5053 5.027-3.8619 10.004-.2242c4.976 3.6378 2.929 9.981 2.929 9.981s5.217 4.427 1.108 8.172z" fill="url(#m)"/><g fill="#000"><path d="m129.587 130.006c-2.385-.749-6.628-3.608-6.628-3.608 1.675.176 3.366.087 5.012-.264l.17-.041.328-.097h.046z" opacity=".15"/><path d="m110.416 158.547-2.313 15.285-1.816 11.79-4.228 3.49 9.199-3.317s-2.386-6.766-.842-27.248z" opacity=".15"/><path d="m107.656 200.3c1.093.24 2.191.448 3.304.632.057-1.045.159-2.099.303-3.154z" opacity=".15"/></g><g filter="url(#a)"><path d="m85.4225 10h-27.4305c-3.7853 0-6.8538 3.0475-6.8538 6.8068v27.2425c0 3.7593 3.0685 6.8068 6.8538 6.8068h27.4305c3.7853 0 6.8538-3.0475 6.8538-6.8068v-27.2425c0-3.7593-3.0685-6.8068-6.8538-6.8068z" fill="#56ccf2"/></g><path d="m82 29h-4.17l3.24-3.24-1.41-1.42-4.66 4.66h-2v-2l4.66-4.66-1.42-1.41-3.24 3.24v-4.17h-2v4.17l-3.24-3.24-1.42 1.41 4.66 4.66v2h-2l-4.66-4.66-1.41 1.42 3.24 3.24h-4.17v2h4.17l-3.24 3.24 1.41 1.42 4.66-4.66h2v2l-4.66 4.66 1.42 1.41 3.24-3.24v4.17h2v-4.17l3.24 3.24 1.42-1.41-4.66-4.66v-2h2l4.66 4.66 1.41-1.42-3.24-3.24h4.17z" fill="#fff"/><g filter="url(#b)"><path d="m227.284 113h-27.43c-3.785 0-6.854 3.048-6.854 6.807v27.242c0 3.76 3.069 6.807 6.854 6.807h27.43c3.786 0 6.854-3.047 6.854-6.807v-27.242c0-3.759-3.068-6.807-6.854-6.807z" fill="#f2c94c"/></g><path d="m223 130c0-5-4-9-9-9s-9 4-9 9c0 3.1 1.6 5.9 4 7.5v2.5c0 1.3.8 2.4 2 2.8v.2c0 1.7 1.3 3 3 3s3-1.3 3-3v-.2c1.2-.4 2-1.5 2-2.8v-2.5c2.4-1.6 4-4.4 4-7.5zm-16 0c0-3.9 3.1-7 7-7s7 3.1 7 7c0 3.5-2.6 6.4-6 6.9v-2.5l1.7-1.7c.4-.4.4-1 0-1.4s-1-.4-1.4 0l-1.3 1.3-1.3-1.3c-.4-.4-1-.4-1.4 0s-.4 1 0 1.4l1.7 1.7v2.5c-3.4-.5-6-3.4-6-6.9zm7 14c-.6 0-1-.4-1-1h2c0 .6-.4 1-1 1zm3-4c0 .6-.4 1-1 1h-4c-.6 0-1-.4-1-1v-1.5c.9.3 1.9.5 3 .5s2.1-.2 3-.5z" fill="#fff"/><g filter="url(#c)"><path d="m44.2844 113h-27.4306c-3.7853 0-6.8538 3.048-6.8538 6.807v27.242c0 3.76 3.0685 6.807 6.8538 6.807h27.4306c3.7852 0 6.8537-3.047 6.8537-6.807v-27.242c0-3.759-3.0685-6.807-6.8537-6.807z" fill="#f58a8a"/></g><path d="m37 130h-1v-2c0-2.76-2.24-5-5-5s-5 2.24-5 5v2h-1c-1.1 0-2 .9-2 2v10c0 1.1.9 2 2 2h12c1.1 0 2-.9 2-2v-10c0-1.1-.9-2-2-2zm-6 9c-1.1 0-2-.9-2-2s.9-2 2-2 2 .9 2 2-.9 2-2 2zm3.1-9h-6.2v-2c0-1.71 1.39-3.1 3.1-3.1s3.1 1.39 3.1 3.1z" fill="#fff"/><g filter="url(#d)"><path d="m182.284 10h-27.43c-3.785 0-6.854 3.0475-6.854 6.8068v27.2425c0 3.7593 3.069 6.8068 6.854 6.8068h27.43c3.786 0 6.854-3.0475 6.854-6.8068v-27.2425c0-3.7593-3.068-6.8068-6.854-6.8068z" fill="#6fcf97"/></g><path d="m174.311 24.8964h-16.331v10.2069h16.331z" fill="#fff"/><path d="m178.713 26.9276-3.605 1.515v3.1576l3.605 1.5151h1.307v-6.1877z" fill="#fff"/></svg>