<svg fill="none" height="132" viewBox="0 0 192 132" width="192" xmlns="http://www.w3.org/2000/svg" xmlns:xlink="http://www.w3.org/1999/xlink"><filter id="a" color-interpolation-filters="sRGB" filterUnits="userSpaceOnUse" height="86.6821" width="91.2519" x="0" y="19.9602"><feFlood flood-opacity="0" result="BackgroundImageFix"/><feColorMatrix in="SourceAlpha" type="matrix" values="0 0 0 0 0 0 0 0 0 0 0 0 0 0 0 0 0 0 127 0"/><feOffset dy="4"/><feGaussianBlur stdDeviation="5"/><feColorMatrix type="matrix" values="0 0 0 0 0 0 0 0 0 0 0 0 0 0 0 0 0 0 0.15 0"/><feBlend in2="BackgroundImageFix" mode="normal" result="effect1_dropShadow"/><feBlend in="SourceGraphic" in2="effect1_dropShadow" mode="normal" result="shape"/></filter><linearGradient id="b" gradientUnits="userSpaceOnUse" x1="126.788" x2="124.512" y1="7.16742" y2="137.263"><stop offset="0" stop-color="#fff" stop-opacity="0"/><stop offset="1" stop-color="#64b5f6" stop-opacity=".6"/></linearGradient><linearGradient id="c"><stop offset="0" stop-color="#42a5f5"/><stop offset="1" stop-color="#1565c0"/></linearGradient><linearGradient id="d" gradientUnits="userSpaceOnUse" x1="106.231" x2="102.383" xlink:href="#c" y1="68.2092" y2="103.452"/><linearGradient id="e"><stop offset="0" stop-color="#ffe082"/><stop offset="1" stop-color="#ffa726"/></linearGradient><linearGradient id="f" gradientUnits="userSpaceOnUse" x1="62.5338" x2="104.455" xlink:href="#e" y1="105.322" y2="110.833"/><linearGradient id="g" gradientUnits="userSpaceOnUse" x1="9417.78" x2="9420.77" xlink:href="#e" y1="2544.52" y2="2315.66"/><linearGradient id="h" gradientUnits="userSpaceOnUse" x1="14987.3" x2="15780.5" xlink:href="#e" y1="4075.82" y2="4075.82"/><linearGradient id="i" gradientUnits="userSpaceOnUse" x1="42948.6" x2="48847.7" xlink:href="#c" y1="15103.6" y2="20773.6"/><linearGradient id="j" gradientUnits="userSpaceOnUse" x1="23009.9" x2="22606.5" xlink:href="#e" y1="12265.9" y2="9747.27"/><path d="m191.995 66c-.007 12.1292-3.325 24.0225-9.592 34.377-6.266 10.354-15.239 18.769-25.936 24.324-.626.33-1.262.646-1.903.951-.288.143-.571.275-.864.408-1.827.845-3.702 1.603-5.625 2.275-1.514.534-3.07 1.018-4.64 1.435-14.832 3.982-30.579 2.601-44.5053-3.904-.5705-.27-1.1411-.544-1.7016-.829-10.4269-5.258-19.2721-13.227-25.6217-23.085-6.3495-9.8565-9.973-21.2439-10.4962-32.985-.5232-11.7412 2.0729-23.4102 7.5201-33.8014 5.4472-10.3913 13.548-19.1279 23.4652-25.30705 9.9175-6.17919 21.2915-9.57687 32.9475-9.8419942 11.655-.2651238 23.17 2.6119242 33.353 8.3338942 10.184 5.72195 18.667 14.08135 24.574 24.21425 5.907 10.133 9.022 21.6721 9.025 33.4251z" fill="url(#b)"/><path d="m100.854 106.742-7.2312-11.3866s20.0312-23.3438 22.0352-24.7233c0 0-10.103 17.0879-14.804 36.1099z" fill="url(#d)"/><path d="m93.6229 95.3554-13.6334 12.2166-25.0803-12.2166-19.1876 1.0587s11.9519 4.0719 15.3147 3.9039l3.368-.168s20.5964 20.02 25.3328 21.547c4.7363 1.527 20.2939-10.445 20.2939-10.445l.903-4.474z" fill="url(#f)"/><path d="m131.241 67.8681c-1.895.9247-3.932 1.5169-6.024 1.751-2.419.3665-6.095-.9875-6.095-.9875 2.777-2.204 2.131-7.4012 2.131-7.4012l.061-.0305c2.964-.2291 5.443-1.9241 7.175-3.5632-.626 4.4489 2.752 10.2314 2.752 10.2314z" fill="url(#g)"/><path d="m131.241 51.3147v3.0541c-.79 1.1865-1.711 2.2779-2.747 3.2527-1.732 1.6441-4.211 3.3392-7.175 3.5632-1.347.1037-2.699-.0963-3.959-.5854-8.079-3.0541-2.398-19.2157-2.398-19.2157 2.565-6.5765 14.178-3.3951 14.178-3.3951 1.555 1.8681 1.853 7.0856 1.793 7.5946-.259.7151-.598 1.3982-1.01 2.0361 0 0 2.206-2.0972 2.964-.7025.757 1.3948-1.646 4.398-1.646 4.398z" fill="url(#h)"/><path d="m131.241 54.379v-3.0541s2.398-2.9778 1.641-4.3827c-.758-1.4049-2.964.7024-2.964.7024.412-.6378.751-1.3209 1.01-2.0361.06-.509-.192-5.4313-1.793-7.5946 0 0-11.613-3.1814-14.178 3.3952 0 0-3.323-.8501-6.186-4.8357-4.681-6.5206.909-7.3198 6.448-6.0625 6.721 1.5271 13.457-3.4817 21.157 1.6085s.798 16.6603-5.135 22.2596z" fill="#262f72"/><g filter="url(#a)"><path d="m78.3838 25.9602h-65.5157c-1.584 0-2.8681 1.2945-2.8681 2.8913v60.8995c0 1.5968 1.2841 2.8913 2.8681 2.8913h65.5157c1.584 0 2.8681-1.2945 2.8681-2.8913v-60.8995c0-1.5968-1.2841-2.8913-2.8681-2.8913z" fill="#fff"/></g><path d="m20.9117 38.0444c-.1818.2075-.4155.3621-.6766.448-.3116.109-.6397.1624-.9695.1578-.3422.0078-.6804-.0765-.9796-.2444-.2834-.1659-.5104-.4143-.6513-.7126-.1605-.3437-.2416-.7196-.2373-1.0995v-.2952c-.0092-.3864.0648-.7702.2171-1.125.1308-.3009.3492-.5547.6261-.7279.3351-.1829.7139-.2688 1.0944-.2481.3806.0206.748.147 1.0617.3652.3012.2776.4824.6632.5049 1.074h-.8634c-.0196-.2075-.1128-.4009-.2626-.5446-.1587-.1227-.3557-.184-.5554-.1731-.1346-.0076-.2689.0198-.39.0795-.1212.0597-.2251.1498-.3018.2616-.1772.3082-.2598.6625-.2373 1.018v.2749c-.0219.3581.0682.7142.2575 1.018.0874.1161.2016.2089.3328.2701.1312.0613.2752.0891.4196.0812.2556.0225.5102-.054.7119-.2138v-.7483h-.8079v-.6566h1.6966z" fill="#64b5f6"/><path d="m72.8295 34.1911h-46.4241c-.5661 0-1.025.4626-1.025 1.0333v3.7566c0 .5707.4589 1.0333 1.025 1.0333h46.4241c.5661 0 1.025-.4626 1.025-1.0333v-3.7566c0-.5707-.4589-1.0333-1.025-1.0333z" fill="#e7eef2"/><path d="m73.8545 43.3026h-48.4741v1.0181h48.4741z" fill="#bbdefb"/><g fill="#e7e8e9"><path d="m73.8545 45.5933h-48.4741v1.018h48.4741z"/><path d="m73.8545 47.8839h-48.4741v1.018h48.4741z"/><path d="m73.8545 50.1744h-48.4741v1.0181h48.4741z"/></g><path d="m73.8545 54.4604h-48.4741v1.0181h48.4741z" fill="#bbdefb"/><path d="m73.8545 56.751h-48.4741v1.0181h48.4741z" fill="#e7e8e9"/><path d="m73.8545 59.0416h-48.4741v1.0181h48.4741z" fill="#e7e8e9"/><path d="m73.8545 61.3323h-48.4741v1.018h48.4741z" fill="#e7e8e9"/><path d="m73.8545 65.491h-48.4741v1.018h48.4741z" fill="#bbdefb"/><path d="m73.8545 67.7816h-48.4741v1.018h48.4741z" fill="#e7e8e9"/><path d="m73.8545 70.0722h-48.4741v1.0181h48.4741z" fill="#e7e8e9"/><path d="m73.8545 72.3628h-48.4741v1.0181h48.4741z" fill="#e7e8e9"/><path d="m73.8545 76.5215h-48.4741v1.0181h48.4741z" fill="#bbdefb"/><path d="m73.8545 78.8121h-48.4741v1.0181h48.4741z" fill="#e7e8e9"/><path d="m73.8545 81.1027h-48.4741v1.0181h48.4741z" fill="#e7e8e9"/><path d="m73.8545 83.3933h-48.4741v1.0181h48.4741z" fill="#e7e8e9"/><path d="m148.707 92.4591c3.453 10.3639 6.013 22.3609 7.761 32.2419-.627.33-1.263.646-1.904.951-.288.143-.571.275-.864.408-1.827.845-3.702 1.603-5.625 2.275-1.514.535-3.07 1.018-4.64 1.435-14.832 3.982-30.579 2.601-44.5052-3.904-.5706-.27-1.1412-.544-1.7017-.829 1.0099-5.228 2.2116-11.372 3.6209-18.29.511-2.507 1.048-5.117 1.61-7.8284 2.894-13.8913 7.044-21.4554 10.473-25.553l.035-.0407c.651-.779 1.357-1.5105 2.111-2.1888.021-.0247.044-.0469.07-.0662.172-.1527.344-.2952.505-.4327 2.066-1.695 3.469-2.0055 3.469-2.0055l.126.0458h.071c1.097.436 2.247.7219 3.419.85h.197.03c.748.0723 1.501.0842 2.252.0357h.045c2.084-.1339 4.114-.7246 5.948-1.7307 2.151.7171 4.177 1.7701 6.004 3.1203 5.221 3.8635 15.739 18.0296 15.739 18.0296z" fill="url(#i)"/><path d="m167.94 111.802c-.031 1.415-1.308 4.286-3.176 7.768-2.636 1.917-5.411 3.632-8.302 5.131-.626.33-1.262.646-1.903.951-.288.143-.571.275-.864.408-1.828.845-3.702 1.603-5.625 2.275l4.878-15.673-12.623-13.3617 8.377-6.8412 4.246-3.4665s15.123 17.3374 14.992 22.8094z" fill="url(#j)"/></svg>