<svg fill="none" height="16" viewBox="0 0 9 16" width="9" xmlns="http://www.w3.org/2000/svg"><path d="m2.11148 6.98h1.4c.72 0 1.24666-.11333 1.58-.34.34666-.24.52-.66.52-1.26v-.64c0-.65333-.18667-1.12667-.56-1.42-.37334-.29333-.94-.44-1.7-.44-.54667 0-1.08667.06-1.62.18-.53334.10667-1.106671.26667-1.7200041.48v-2.18c1.2000041-.760001 2.6333341-1.14 4.3000041-1.14 1.37333 0 2.42666.366666 3.16 1.1.73333.73333 1.1 1.71333 1.1 2.94v1.18c0 2.52-1.41334 3.78-4.24 3.78v1.72h-2.22zm.24 8.04c-.12 0-.22-.0333-.3-.1-.06667-.0667-.1-.1667-.1-.3v-2.04c0-.28.13333-.42.4-.42h1.72c.29333 0 .44.14.44.42v2.04c0 .2667-.14667.4-.44.4z" fill="#fff"/></svg>